# xmcd
#
# Track frame offsets:
#	150
#	23209
#	42309
#	60104
#	82778
#	100870
#	116788
#	132462
#	162403
#	183868
#
# Disc length: 2816 seconds
#
# Revision: 1
# Processed by: cddbd v1.5.2PL0 Copyright (c) Steve Scherf et al.
# Submitted via: audiograbber 1.82.01
#
DISCID=770afe0a
DTITLE=Matthew Perryman Jones - Land Of The Living
DYEAR=2012
DGENRE=Americana
TTITLE0=Stones From The Riverbed
TTITLE1=Poisoning The Well
TTITLE2=I Won't Let You Down Again
TTITLE3=O Theo
TTITLE4=Sleeping With A Stranger
TTITLE5=Waking Up The Dead
TTITLE6=Keep It On The Inside
TTITLE7=Canción De La Noche
TTITLE8=The Angels Were Singing
TTITLE9=Land Of The Living
EXTD=
EXTT0=
EXTT1=
EXTT2=
EXTT3=
EXTT4=
EXTT5=
EXTT6=
EXTT7=
EXTT8=
EXTT9=
PLAYORDER=
